<mxfile host="app.diagrams.net" modified="2024-04-18T20:19:52.939Z" agent="Mozilla/5.0 (Windows NT 10.0; Win64; x64) AppleWebKit/537.36 (KHTML, like Gecko) Chrome/123.0.0.0 Safari/537.36" etag="agNbWF3wfUl1LhPm46Vx" version="24.2.5" type="device">
  <diagram name="Página-1" id="2r9ubZKLg94uX_1JPSCD">
    <mxGraphModel dx="861" dy="541" grid="1" gridSize="10" guides="1" tooltips="1" connect="1" arrows="1" fold="1" page="1" pageScale="1" pageWidth="827" pageHeight="1169" math="0" shadow="0">
      <root>
        <mxCell id="0" />
        <mxCell id="1" parent="0" />
        <mxCell id="x7kGRpnDKAyhEFYQKFrh-2" value="Classe - Paciente" style="swimlane;fontStyle=0;childLayout=stackLayout;horizontal=1;startSize=30;horizontalStack=0;resizeParent=1;resizeParentMax=0;resizeLast=0;collapsible=1;marginBottom=0;whiteSpace=wrap;html=1;" vertex="1" parent="1">
          <mxGeometry y="150" width="140" height="180" as="geometry">
            <mxRectangle x="290" y="30" width="90" height="30" as="alternateBounds" />
          </mxGeometry>
        </mxCell>
        <mxCell id="x7kGRpnDKAyhEFYQKFrh-3" value="idPaciente" style="text;strokeColor=none;fillColor=none;align=left;verticalAlign=middle;spacingLeft=4;spacingRight=4;overflow=hidden;points=[[0,0.5],[1,0.5]];portConstraint=eastwest;rotatable=0;whiteSpace=wrap;html=1;" vertex="1" parent="x7kGRpnDKAyhEFYQKFrh-2">
          <mxGeometry y="30" width="140" height="30" as="geometry" />
        </mxCell>
        <mxCell id="x7kGRpnDKAyhEFYQKFrh-4" value="nomePaciente" style="text;strokeColor=none;fillColor=none;align=left;verticalAlign=middle;spacingLeft=4;spacingRight=4;overflow=hidden;points=[[0,0.5],[1,0.5]];portConstraint=eastwest;rotatable=0;whiteSpace=wrap;html=1;" vertex="1" parent="x7kGRpnDKAyhEFYQKFrh-2">
          <mxGeometry y="60" width="140" height="30" as="geometry" />
        </mxCell>
        <mxCell id="x7kGRpnDKAyhEFYQKFrh-5" value="descEndereco" style="text;strokeColor=none;fillColor=none;align=left;verticalAlign=middle;spacingLeft=4;spacingRight=4;overflow=hidden;points=[[0,0.5],[1,0.5]];portConstraint=eastwest;rotatable=0;whiteSpace=wrap;html=1;" vertex="1" parent="x7kGRpnDKAyhEFYQKFrh-2">
          <mxGeometry y="90" width="140" height="30" as="geometry" />
        </mxCell>
        <mxCell id="x7kGRpnDKAyhEFYQKFrh-11" value="dataNascimento" style="text;strokeColor=none;fillColor=none;align=left;verticalAlign=middle;spacingLeft=4;spacingRight=4;overflow=hidden;points=[[0,0.5],[1,0.5]];portConstraint=eastwest;rotatable=0;whiteSpace=wrap;html=1;" vertex="1" parent="x7kGRpnDKAyhEFYQKFrh-2">
          <mxGeometry y="120" width="140" height="30" as="geometry" />
        </mxCell>
        <mxCell id="x7kGRpnDKAyhEFYQKFrh-47" value="Sexo" style="text;strokeColor=none;fillColor=none;align=left;verticalAlign=middle;spacingLeft=4;spacingRight=4;overflow=hidden;points=[[0,0.5],[1,0.5]];portConstraint=eastwest;rotatable=0;whiteSpace=wrap;html=1;" vertex="1" parent="x7kGRpnDKAyhEFYQKFrh-2">
          <mxGeometry y="150" width="140" height="30" as="geometry" />
        </mxCell>
        <mxCell id="x7kGRpnDKAyhEFYQKFrh-18" value="" style="group" vertex="1" connectable="0" parent="1">
          <mxGeometry x="468" width="120" height="90" as="geometry" />
        </mxCell>
        <mxCell id="x7kGRpnDKAyhEFYQKFrh-16" value="Interface de Cadastro" style="rounded=0;whiteSpace=wrap;html=1;" vertex="1" parent="x7kGRpnDKAyhEFYQKFrh-18">
          <mxGeometry width="120" height="20" as="geometry" />
        </mxCell>
        <mxCell id="x7kGRpnDKAyhEFYQKFrh-17" value="Interface para recepção" style="rounded=0;whiteSpace=wrap;html=1;" vertex="1" parent="x7kGRpnDKAyhEFYQKFrh-18">
          <mxGeometry y="20" width="120" height="70" as="geometry" />
        </mxCell>
        <mxCell id="x7kGRpnDKAyhEFYQKFrh-21" value="Classe - Prontuario" style="swimlane;fontStyle=0;childLayout=stackLayout;horizontal=1;startSize=30;horizontalStack=0;resizeParent=1;resizeParentMax=0;resizeLast=0;collapsible=1;marginBottom=0;whiteSpace=wrap;html=1;" vertex="1" parent="1">
          <mxGeometry x="210" y="150" width="140" height="540" as="geometry" />
        </mxCell>
        <mxCell id="x7kGRpnDKAyhEFYQKFrh-22" value="idPaciente" style="text;strokeColor=none;fillColor=none;align=left;verticalAlign=middle;spacingLeft=4;spacingRight=4;overflow=hidden;points=[[0,0.5],[1,0.5]];portConstraint=eastwest;rotatable=0;whiteSpace=wrap;html=1;" vertex="1" parent="x7kGRpnDKAyhEFYQKFrh-21">
          <mxGeometry y="30" width="140" height="30" as="geometry" />
        </mxCell>
        <mxCell id="x7kGRpnDKAyhEFYQKFrh-35" value="idProntuario" style="text;strokeColor=none;fillColor=none;align=left;verticalAlign=middle;spacingLeft=4;spacingRight=4;overflow=hidden;points=[[0,0.5],[1,0.5]];portConstraint=eastwest;rotatable=0;whiteSpace=wrap;html=1;" vertex="1" parent="x7kGRpnDKAyhEFYQKFrh-21">
          <mxGeometry y="60" width="140" height="30" as="geometry" />
        </mxCell>
        <mxCell id="x7kGRpnDKAyhEFYQKFrh-57" value="dataEntrada" style="text;strokeColor=none;fillColor=none;align=left;verticalAlign=middle;spacingLeft=4;spacingRight=4;overflow=hidden;points=[[0,0.5],[1,0.5]];portConstraint=eastwest;rotatable=0;whiteSpace=wrap;html=1;" vertex="1" parent="x7kGRpnDKAyhEFYQKFrh-21">
          <mxGeometry y="90" width="140" height="30" as="geometry" />
        </mxCell>
        <mxCell id="x7kGRpnDKAyhEFYQKFrh-76" value="horaEntrada" style="text;strokeColor=none;fillColor=none;align=left;verticalAlign=middle;spacingLeft=4;spacingRight=4;overflow=hidden;points=[[0,0.5],[1,0.5]];portConstraint=eastwest;rotatable=0;whiteSpace=wrap;html=1;" vertex="1" parent="x7kGRpnDKAyhEFYQKFrh-21">
          <mxGeometry y="120" width="140" height="30" as="geometry" />
        </mxCell>
        <mxCell id="x7kGRpnDKAyhEFYQKFrh-23" value="Peso" style="text;strokeColor=none;fillColor=none;align=left;verticalAlign=middle;spacingLeft=4;spacingRight=4;overflow=hidden;points=[[0,0.5],[1,0.5]];portConstraint=eastwest;rotatable=0;whiteSpace=wrap;html=1;" vertex="1" parent="x7kGRpnDKAyhEFYQKFrh-21">
          <mxGeometry y="150" width="140" height="30" as="geometry" />
        </mxCell>
        <mxCell id="x7kGRpnDKAyhEFYQKFrh-24" value="Altura" style="text;strokeColor=none;fillColor=none;align=left;verticalAlign=middle;spacingLeft=4;spacingRight=4;overflow=hidden;points=[[0,0.5],[1,0.5]];portConstraint=eastwest;rotatable=0;whiteSpace=wrap;html=1;" vertex="1" parent="x7kGRpnDKAyhEFYQKFrh-21">
          <mxGeometry y="180" width="140" height="30" as="geometry" />
        </mxCell>
        <mxCell id="x7kGRpnDKAyhEFYQKFrh-26" value="tempEntrada" style="text;strokeColor=none;fillColor=none;align=left;verticalAlign=middle;spacingLeft=4;spacingRight=4;overflow=hidden;points=[[0,0.5],[1,0.5]];portConstraint=eastwest;rotatable=0;whiteSpace=wrap;html=1;" vertex="1" parent="x7kGRpnDKAyhEFYQKFrh-21">
          <mxGeometry y="210" width="140" height="30" as="geometry" />
        </mxCell>
        <mxCell id="x7kGRpnDKAyhEFYQKFrh-25" value="pressaoEntrada" style="text;strokeColor=none;fillColor=none;align=left;verticalAlign=middle;spacingLeft=4;spacingRight=4;overflow=hidden;points=[[0,0.5],[1,0.5]];portConstraint=eastwest;rotatable=0;whiteSpace=wrap;html=1;" vertex="1" parent="x7kGRpnDKAyhEFYQKFrh-21">
          <mxGeometry y="240" width="140" height="30" as="geometry" />
        </mxCell>
        <mxCell id="x7kGRpnDKAyhEFYQKFrh-27" value="descricaoSintoma" style="text;strokeColor=none;fillColor=none;align=left;verticalAlign=middle;spacingLeft=4;spacingRight=4;overflow=hidden;points=[[0,0.5],[1,0.5]];portConstraint=eastwest;rotatable=0;whiteSpace=wrap;html=1;" vertex="1" parent="x7kGRpnDKAyhEFYQKFrh-21">
          <mxGeometry y="270" width="140" height="30" as="geometry" />
        </mxCell>
        <mxCell id="x7kGRpnDKAyhEFYQKFrh-43" value="medicoResponsavel" style="text;strokeColor=none;fillColor=none;align=left;verticalAlign=middle;spacingLeft=4;spacingRight=4;overflow=hidden;points=[[0,0.5],[1,0.5]];portConstraint=eastwest;rotatable=0;whiteSpace=wrap;html=1;" vertex="1" parent="x7kGRpnDKAyhEFYQKFrh-21">
          <mxGeometry y="300" width="140" height="30" as="geometry" />
        </mxCell>
        <mxCell id="x7kGRpnDKAyhEFYQKFrh-46" value="diagnosticoInicial" style="text;strokeColor=none;fillColor=none;align=left;verticalAlign=middle;spacingLeft=4;spacingRight=4;overflow=hidden;points=[[0,0.5],[1,0.5]];portConstraint=eastwest;rotatable=0;whiteSpace=wrap;html=1;" vertex="1" parent="x7kGRpnDKAyhEFYQKFrh-21">
          <mxGeometry y="330" width="140" height="30" as="geometry" />
        </mxCell>
        <mxCell id="x7kGRpnDKAyhEFYQKFrh-45" value="medicacaoReceita" style="text;strokeColor=none;fillColor=none;align=left;verticalAlign=middle;spacingLeft=4;spacingRight=4;overflow=hidden;points=[[0,0.5],[1,0.5]];portConstraint=eastwest;rotatable=0;whiteSpace=wrap;html=1;" vertex="1" parent="x7kGRpnDKAyhEFYQKFrh-21">
          <mxGeometry y="360" width="140" height="30" as="geometry" />
        </mxCell>
        <mxCell id="x7kGRpnDKAyhEFYQKFrh-44" value="Procedimento" style="text;strokeColor=none;fillColor=none;align=left;verticalAlign=middle;spacingLeft=4;spacingRight=4;overflow=hidden;points=[[0,0.5],[1,0.5]];portConstraint=eastwest;rotatable=0;whiteSpace=wrap;html=1;" vertex="1" parent="x7kGRpnDKAyhEFYQKFrh-21">
          <mxGeometry y="390" width="140" height="30" as="geometry" />
        </mxCell>
        <mxCell id="x7kGRpnDKAyhEFYQKFrh-61" value="tempSaida" style="text;strokeColor=none;fillColor=none;align=left;verticalAlign=middle;spacingLeft=4;spacingRight=4;overflow=hidden;points=[[0,0.5],[1,0.5]];portConstraint=eastwest;rotatable=0;whiteSpace=wrap;html=1;" vertex="1" parent="x7kGRpnDKAyhEFYQKFrh-21">
          <mxGeometry y="420" width="140" height="30" as="geometry" />
        </mxCell>
        <mxCell id="x7kGRpnDKAyhEFYQKFrh-60" value="pressaoSaida" style="text;strokeColor=none;fillColor=none;align=left;verticalAlign=middle;spacingLeft=4;spacingRight=4;overflow=hidden;points=[[0,0.5],[1,0.5]];portConstraint=eastwest;rotatable=0;whiteSpace=wrap;html=1;" vertex="1" parent="x7kGRpnDKAyhEFYQKFrh-21">
          <mxGeometry y="450" width="140" height="30" as="geometry" />
        </mxCell>
        <mxCell id="x7kGRpnDKAyhEFYQKFrh-59" value="dataSaida" style="text;strokeColor=none;fillColor=none;align=left;verticalAlign=middle;spacingLeft=4;spacingRight=4;overflow=hidden;points=[[0,0.5],[1,0.5]];portConstraint=eastwest;rotatable=0;whiteSpace=wrap;html=1;" vertex="1" parent="x7kGRpnDKAyhEFYQKFrh-21">
          <mxGeometry y="480" width="140" height="30" as="geometry" />
        </mxCell>
        <mxCell id="x7kGRpnDKAyhEFYQKFrh-78" value="dataSaida" style="text;strokeColor=none;fillColor=none;align=left;verticalAlign=middle;spacingLeft=4;spacingRight=4;overflow=hidden;points=[[0,0.5],[1,0.5]];portConstraint=eastwest;rotatable=0;whiteSpace=wrap;html=1;" vertex="1" parent="x7kGRpnDKAyhEFYQKFrh-21">
          <mxGeometry y="510" width="140" height="30" as="geometry" />
        </mxCell>
        <mxCell id="x7kGRpnDKAyhEFYQKFrh-30" value="1 --&amp;gt; n" style="edgeStyle=orthogonalEdgeStyle;rounded=0;orthogonalLoop=1;jettySize=auto;html=1;exitX=1;exitY=0.5;exitDx=0;exitDy=0;entryX=0;entryY=0.5;entryDx=0;entryDy=0;" edge="1" parent="1" source="x7kGRpnDKAyhEFYQKFrh-3" target="x7kGRpnDKAyhEFYQKFrh-22">
          <mxGeometry relative="1" as="geometry" />
        </mxCell>
        <mxCell id="x7kGRpnDKAyhEFYQKFrh-31" value="" style="group" vertex="1" connectable="0" parent="1">
          <mxGeometry x="468" y="150" width="120" height="90" as="geometry" />
        </mxCell>
        <mxCell id="x7kGRpnDKAyhEFYQKFrh-32" value="Interface de Triagem" style="rounded=0;whiteSpace=wrap;html=1;" vertex="1" parent="x7kGRpnDKAyhEFYQKFrh-31">
          <mxGeometry width="120" height="20" as="geometry" />
        </mxCell>
        <mxCell id="x7kGRpnDKAyhEFYQKFrh-33" value="Interface para&amp;nbsp; o processo de triagem" style="rounded=0;whiteSpace=wrap;html=1;" vertex="1" parent="x7kGRpnDKAyhEFYQKFrh-31">
          <mxGeometry y="20" width="120" height="70" as="geometry" />
        </mxCell>
        <mxCell id="x7kGRpnDKAyhEFYQKFrh-37" style="edgeStyle=orthogonalEdgeStyle;rounded=0;orthogonalLoop=1;jettySize=auto;html=1;entryX=1;entryY=0.5;entryDx=0;entryDy=0;exitX=0;exitY=0.5;exitDx=0;exitDy=0;" edge="1" parent="1" source="x7kGRpnDKAyhEFYQKFrh-33" target="x7kGRpnDKAyhEFYQKFrh-35">
          <mxGeometry relative="1" as="geometry" />
        </mxCell>
        <mxCell id="x7kGRpnDKAyhEFYQKFrh-38" style="edgeStyle=orthogonalEdgeStyle;rounded=0;orthogonalLoop=1;jettySize=auto;html=1;exitX=0;exitY=0.5;exitDx=0;exitDy=0;" edge="1" parent="1" source="x7kGRpnDKAyhEFYQKFrh-33" target="x7kGRpnDKAyhEFYQKFrh-23">
          <mxGeometry relative="1" as="geometry">
            <mxPoint x="611" y="310" as="sourcePoint" />
            <mxPoint x="441" y="235" as="targetPoint" />
          </mxGeometry>
        </mxCell>
        <mxCell id="x7kGRpnDKAyhEFYQKFrh-39" style="edgeStyle=orthogonalEdgeStyle;rounded=0;orthogonalLoop=1;jettySize=auto;html=1;entryX=1;entryY=0.5;entryDx=0;entryDy=0;exitX=0;exitY=0.5;exitDx=0;exitDy=0;" edge="1" parent="1" source="x7kGRpnDKAyhEFYQKFrh-33" target="x7kGRpnDKAyhEFYQKFrh-24">
          <mxGeometry relative="1" as="geometry">
            <mxPoint x="611" y="380" as="targetPoint" />
          </mxGeometry>
        </mxCell>
        <mxCell id="x7kGRpnDKAyhEFYQKFrh-40" style="edgeStyle=orthogonalEdgeStyle;rounded=0;orthogonalLoop=1;jettySize=auto;html=1;entryX=1;entryY=0.5;entryDx=0;entryDy=0;exitX=0;exitY=0.5;exitDx=0;exitDy=0;" edge="1" parent="1" source="x7kGRpnDKAyhEFYQKFrh-33" target="x7kGRpnDKAyhEFYQKFrh-26">
          <mxGeometry relative="1" as="geometry">
            <mxPoint x="441" y="325" as="targetPoint" />
            <mxPoint x="661" y="270" as="sourcePoint" />
          </mxGeometry>
        </mxCell>
        <mxCell id="x7kGRpnDKAyhEFYQKFrh-41" style="edgeStyle=orthogonalEdgeStyle;rounded=0;orthogonalLoop=1;jettySize=auto;html=1;entryX=1;entryY=0.5;entryDx=0;entryDy=0;exitX=0;exitY=0.5;exitDx=0;exitDy=0;" edge="1" parent="1" source="x7kGRpnDKAyhEFYQKFrh-33" target="x7kGRpnDKAyhEFYQKFrh-25">
          <mxGeometry relative="1" as="geometry">
            <mxPoint x="441" y="355" as="targetPoint" />
            <mxPoint x="671" y="275" as="sourcePoint" />
          </mxGeometry>
        </mxCell>
        <mxCell id="x7kGRpnDKAyhEFYQKFrh-42" style="edgeStyle=orthogonalEdgeStyle;rounded=0;orthogonalLoop=1;jettySize=auto;html=1;entryX=1;entryY=0.5;entryDx=0;entryDy=0;exitX=0;exitY=0.5;exitDx=0;exitDy=0;" edge="1" parent="1" source="x7kGRpnDKAyhEFYQKFrh-33" target="x7kGRpnDKAyhEFYQKFrh-27">
          <mxGeometry relative="1" as="geometry">
            <mxPoint x="441" y="385" as="targetPoint" />
            <mxPoint x="671" y="275" as="sourcePoint" />
          </mxGeometry>
        </mxCell>
        <mxCell id="x7kGRpnDKAyhEFYQKFrh-48" value="" style="group" vertex="1" connectable="0" parent="1">
          <mxGeometry x="468" y="490" width="120" height="90" as="geometry" />
        </mxCell>
        <mxCell id="x7kGRpnDKAyhEFYQKFrh-49" value="Interface do Médico" style="rounded=0;whiteSpace=wrap;html=1;" vertex="1" parent="x7kGRpnDKAyhEFYQKFrh-48">
          <mxGeometry width="120" height="20" as="geometry" />
        </mxCell>
        <mxCell id="x7kGRpnDKAyhEFYQKFrh-50" value="Interface que ficará no computador do médico" style="rounded=0;whiteSpace=wrap;html=1;" vertex="1" parent="x7kGRpnDKAyhEFYQKFrh-48">
          <mxGeometry y="20" width="120" height="70" as="geometry" />
        </mxCell>
        <mxCell id="x7kGRpnDKAyhEFYQKFrh-53" style="edgeStyle=orthogonalEdgeStyle;rounded=0;orthogonalLoop=1;jettySize=auto;html=1;entryX=1;entryY=0.5;entryDx=0;entryDy=0;exitX=0;exitY=0.5;exitDx=0;exitDy=0;" edge="1" parent="1" source="x7kGRpnDKAyhEFYQKFrh-50" target="x7kGRpnDKAyhEFYQKFrh-43">
          <mxGeometry relative="1" as="geometry" />
        </mxCell>
        <mxCell id="x7kGRpnDKAyhEFYQKFrh-54" style="edgeStyle=orthogonalEdgeStyle;rounded=0;orthogonalLoop=1;jettySize=auto;html=1;entryX=1;entryY=0.5;entryDx=0;entryDy=0;exitX=0;exitY=0.5;exitDx=0;exitDy=0;" edge="1" parent="1" source="x7kGRpnDKAyhEFYQKFrh-50" target="x7kGRpnDKAyhEFYQKFrh-46">
          <mxGeometry relative="1" as="geometry">
            <mxPoint x="621" y="465" as="sourcePoint" />
            <mxPoint x="441" y="445" as="targetPoint" />
          </mxGeometry>
        </mxCell>
        <mxCell id="x7kGRpnDKAyhEFYQKFrh-55" style="edgeStyle=orthogonalEdgeStyle;rounded=0;orthogonalLoop=1;jettySize=auto;html=1;entryX=1;entryY=0.5;entryDx=0;entryDy=0;exitX=0;exitY=0.5;exitDx=0;exitDy=0;" edge="1" parent="1" source="x7kGRpnDKAyhEFYQKFrh-50" target="x7kGRpnDKAyhEFYQKFrh-45">
          <mxGeometry relative="1" as="geometry">
            <mxPoint x="621" y="465" as="sourcePoint" />
            <mxPoint x="441" y="475" as="targetPoint" />
          </mxGeometry>
        </mxCell>
        <mxCell id="x7kGRpnDKAyhEFYQKFrh-56" style="edgeStyle=orthogonalEdgeStyle;rounded=0;orthogonalLoop=1;jettySize=auto;html=1;entryX=1;entryY=0.5;entryDx=0;entryDy=0;exitX=0;exitY=0.5;exitDx=0;exitDy=0;" edge="1" parent="1" source="x7kGRpnDKAyhEFYQKFrh-50" target="x7kGRpnDKAyhEFYQKFrh-44">
          <mxGeometry relative="1" as="geometry">
            <mxPoint x="621" y="465" as="sourcePoint" />
            <mxPoint x="441" y="505" as="targetPoint" />
          </mxGeometry>
        </mxCell>
        <mxCell id="x7kGRpnDKAyhEFYQKFrh-58" style="edgeStyle=orthogonalEdgeStyle;rounded=0;orthogonalLoop=1;jettySize=auto;html=1;entryX=1;entryY=0.5;entryDx=0;entryDy=0;exitX=0;exitY=0.5;exitDx=0;exitDy=0;" edge="1" parent="1" source="x7kGRpnDKAyhEFYQKFrh-33" target="x7kGRpnDKAyhEFYQKFrh-57">
          <mxGeometry relative="1" as="geometry">
            <mxPoint x="581" y="225" as="sourcePoint" />
            <mxPoint x="441" y="235" as="targetPoint" />
          </mxGeometry>
        </mxCell>
        <mxCell id="x7kGRpnDKAyhEFYQKFrh-62" value="" style="group" vertex="1" connectable="0" parent="1">
          <mxGeometry x="468" y="610" width="120" height="90" as="geometry" />
        </mxCell>
        <mxCell id="x7kGRpnDKAyhEFYQKFrh-63" value="Interface de Triagem" style="rounded=0;whiteSpace=wrap;html=1;" vertex="1" parent="x7kGRpnDKAyhEFYQKFrh-62">
          <mxGeometry width="120" height="20" as="geometry" />
        </mxCell>
        <mxCell id="x7kGRpnDKAyhEFYQKFrh-64" value="Interface para o processo de Alta" style="rounded=0;whiteSpace=wrap;html=1;" vertex="1" parent="x7kGRpnDKAyhEFYQKFrh-62">
          <mxGeometry y="20" width="120" height="70" as="geometry" />
        </mxCell>
        <mxCell id="x7kGRpnDKAyhEFYQKFrh-65" style="edgeStyle=orthogonalEdgeStyle;rounded=0;orthogonalLoop=1;jettySize=auto;html=1;exitX=0;exitY=0.5;exitDx=0;exitDy=0;entryX=1;entryY=0.5;entryDx=0;entryDy=0;" edge="1" parent="1" source="x7kGRpnDKAyhEFYQKFrh-64" target="x7kGRpnDKAyhEFYQKFrh-61">
          <mxGeometry relative="1" as="geometry" />
        </mxCell>
        <mxCell id="x7kGRpnDKAyhEFYQKFrh-66" style="edgeStyle=orthogonalEdgeStyle;rounded=0;orthogonalLoop=1;jettySize=auto;html=1;exitX=0;exitY=0.5;exitDx=0;exitDy=0;entryX=1;entryY=0.5;entryDx=0;entryDy=0;" edge="1" parent="1" source="x7kGRpnDKAyhEFYQKFrh-64" target="x7kGRpnDKAyhEFYQKFrh-60">
          <mxGeometry relative="1" as="geometry">
            <mxPoint x="598" y="655" as="sourcePoint" />
            <mxPoint x="441" y="595" as="targetPoint" />
          </mxGeometry>
        </mxCell>
        <mxCell id="x7kGRpnDKAyhEFYQKFrh-67" value="Classe - Funcionario" style="swimlane;fontStyle=0;childLayout=stackLayout;horizontal=1;startSize=30;horizontalStack=0;resizeParent=1;resizeParentMax=0;resizeLast=0;collapsible=1;marginBottom=0;whiteSpace=wrap;html=1;" vertex="1" parent="1">
          <mxGeometry x="750" y="220" width="140" height="150" as="geometry">
            <mxRectangle x="290" y="30" width="90" height="30" as="alternateBounds" />
          </mxGeometry>
        </mxCell>
        <mxCell id="x7kGRpnDKAyhEFYQKFrh-68" value="idFuncionario" style="text;strokeColor=none;fillColor=none;align=left;verticalAlign=middle;spacingLeft=4;spacingRight=4;overflow=hidden;points=[[0,0.5],[1,0.5]];portConstraint=eastwest;rotatable=0;whiteSpace=wrap;html=1;" vertex="1" parent="x7kGRpnDKAyhEFYQKFrh-67">
          <mxGeometry y="30" width="140" height="30" as="geometry" />
        </mxCell>
        <mxCell id="x7kGRpnDKAyhEFYQKFrh-69" value="nomeFuncionario" style="text;strokeColor=none;fillColor=none;align=left;verticalAlign=middle;spacingLeft=4;spacingRight=4;overflow=hidden;points=[[0,0.5],[1,0.5]];portConstraint=eastwest;rotatable=0;whiteSpace=wrap;html=1;" vertex="1" parent="x7kGRpnDKAyhEFYQKFrh-67">
          <mxGeometry y="60" width="140" height="30" as="geometry" />
        </mxCell>
        <mxCell id="x7kGRpnDKAyhEFYQKFrh-70" value="cargoFuncionario" style="text;strokeColor=none;fillColor=none;align=left;verticalAlign=middle;spacingLeft=4;spacingRight=4;overflow=hidden;points=[[0,0.5],[1,0.5]];portConstraint=eastwest;rotatable=0;whiteSpace=wrap;html=1;" vertex="1" parent="x7kGRpnDKAyhEFYQKFrh-67">
          <mxGeometry y="90" width="140" height="30" as="geometry" />
        </mxCell>
        <mxCell id="x7kGRpnDKAyhEFYQKFrh-71" value="dataAdmissao" style="text;strokeColor=none;fillColor=none;align=left;verticalAlign=middle;spacingLeft=4;spacingRight=4;overflow=hidden;points=[[0,0.5],[1,0.5]];portConstraint=eastwest;rotatable=0;whiteSpace=wrap;html=1;" vertex="1" parent="x7kGRpnDKAyhEFYQKFrh-67">
          <mxGeometry y="120" width="140" height="30" as="geometry" />
        </mxCell>
        <mxCell id="x7kGRpnDKAyhEFYQKFrh-73" value="Acesso Recepção" style="edgeStyle=orthogonalEdgeStyle;rounded=0;orthogonalLoop=1;jettySize=auto;html=1;exitX=0;exitY=0.5;exitDx=0;exitDy=0;entryX=1.002;entryY=0.367;entryDx=0;entryDy=0;entryPerimeter=0;" edge="1" parent="1" source="x7kGRpnDKAyhEFYQKFrh-70" target="x7kGRpnDKAyhEFYQKFrh-17">
          <mxGeometry x="0.6469" relative="1" as="geometry">
            <mxPoint as="offset" />
          </mxGeometry>
        </mxCell>
        <mxCell id="x7kGRpnDKAyhEFYQKFrh-74" value="Acesso Triagem" style="edgeStyle=orthogonalEdgeStyle;rounded=0;orthogonalLoop=1;jettySize=auto;html=1;entryX=1;entryY=0.5;entryDx=0;entryDy=0;" edge="1" parent="1" source="x7kGRpnDKAyhEFYQKFrh-70" target="x7kGRpnDKAyhEFYQKFrh-33">
          <mxGeometry x="0.5603" y="-5" relative="1" as="geometry">
            <mxPoint as="offset" />
          </mxGeometry>
        </mxCell>
        <mxCell id="x7kGRpnDKAyhEFYQKFrh-77" style="edgeStyle=orthogonalEdgeStyle;rounded=0;orthogonalLoop=1;jettySize=auto;html=1;entryX=1;entryY=0.5;entryDx=0;entryDy=0;exitX=0;exitY=0.5;exitDx=0;exitDy=0;" edge="1" parent="1" source="x7kGRpnDKAyhEFYQKFrh-33" target="x7kGRpnDKAyhEFYQKFrh-76">
          <mxGeometry relative="1" as="geometry">
            <mxPoint x="581" y="225" as="sourcePoint" />
            <mxPoint x="331" y="305" as="targetPoint" />
          </mxGeometry>
        </mxCell>
        <mxCell id="x7kGRpnDKAyhEFYQKFrh-79" style="edgeStyle=orthogonalEdgeStyle;rounded=0;orthogonalLoop=1;jettySize=auto;html=1;exitX=0;exitY=0.5;exitDx=0;exitDy=0;entryX=1;entryY=0.5;entryDx=0;entryDy=0;" edge="1" parent="1" source="x7kGRpnDKAyhEFYQKFrh-64" target="x7kGRpnDKAyhEFYQKFrh-59">
          <mxGeometry relative="1" as="geometry">
            <mxPoint x="478" y="675" as="sourcePoint" />
            <mxPoint x="331" y="665" as="targetPoint" />
          </mxGeometry>
        </mxCell>
        <mxCell id="x7kGRpnDKAyhEFYQKFrh-81" style="edgeStyle=orthogonalEdgeStyle;rounded=0;orthogonalLoop=1;jettySize=auto;html=1;" edge="1" parent="1" source="x7kGRpnDKAyhEFYQKFrh-17" target="x7kGRpnDKAyhEFYQKFrh-2">
          <mxGeometry relative="1" as="geometry" />
        </mxCell>
        <mxCell id="x7kGRpnDKAyhEFYQKFrh-82" value="Acesso Triagem" style="edgeStyle=orthogonalEdgeStyle;rounded=0;orthogonalLoop=1;jettySize=auto;html=1;entryX=1;entryY=0.5;entryDx=0;entryDy=0;" edge="1" parent="1" source="x7kGRpnDKAyhEFYQKFrh-70" target="x7kGRpnDKAyhEFYQKFrh-64">
          <mxGeometry x="0.7277" y="-5" relative="1" as="geometry">
            <mxPoint x="891" y="301" as="sourcePoint" />
            <mxPoint x="598" y="215" as="targetPoint" />
            <mxPoint as="offset" />
          </mxGeometry>
        </mxCell>
        <mxCell id="x7kGRpnDKAyhEFYQKFrh-83" value="Acesso Médico" style="edgeStyle=orthogonalEdgeStyle;rounded=0;orthogonalLoop=1;jettySize=auto;html=1;entryX=1;entryY=0.5;entryDx=0;entryDy=0;exitX=0;exitY=0.5;exitDx=0;exitDy=0;" edge="1" parent="1" source="x7kGRpnDKAyhEFYQKFrh-70" target="x7kGRpnDKAyhEFYQKFrh-50">
          <mxGeometry x="0.6696" y="-5" relative="1" as="geometry">
            <mxPoint x="891" y="305" as="sourcePoint" />
            <mxPoint x="598" y="675" as="targetPoint" />
            <mxPoint as="offset" />
          </mxGeometry>
        </mxCell>
        <mxCell id="x7kGRpnDKAyhEFYQKFrh-92" value="" style="group" vertex="1" connectable="0" parent="1">
          <mxGeometry x="960" y="440" width="120" height="90" as="geometry" />
        </mxCell>
        <mxCell id="x7kGRpnDKAyhEFYQKFrh-93" value="Interface de Triagem" style="rounded=0;whiteSpace=wrap;html=1;" vertex="1" parent="x7kGRpnDKAyhEFYQKFrh-92">
          <mxGeometry width="120" height="20" as="geometry" />
        </mxCell>
        <mxCell id="x7kGRpnDKAyhEFYQKFrh-94" value="Interface para&amp;nbsp; o processo de triagem" style="rounded=0;whiteSpace=wrap;html=1;" vertex="1" parent="x7kGRpnDKAyhEFYQKFrh-92">
          <mxGeometry y="20" width="120" height="70" as="geometry" />
        </mxCell>
        <mxCell id="x7kGRpnDKAyhEFYQKFrh-95" value="Acesso RH" style="edgeStyle=orthogonalEdgeStyle;rounded=0;orthogonalLoop=1;jettySize=auto;html=1;entryX=0;entryY=0.5;entryDx=0;entryDy=0;exitX=0;exitY=0.5;exitDx=0;exitDy=0;" edge="1" parent="1" source="x7kGRpnDKAyhEFYQKFrh-70" target="x7kGRpnDKAyhEFYQKFrh-94">
          <mxGeometry x="0.6696" y="-5" relative="1" as="geometry">
            <mxPoint x="760" y="335" as="sourcePoint" />
            <mxPoint x="598" y="555" as="targetPoint" />
            <Array as="points">
              <mxPoint x="670" y="325" />
              <mxPoint x="670" y="495" />
            </Array>
            <mxPoint as="offset" />
          </mxGeometry>
        </mxCell>
        <mxCell id="x7kGRpnDKAyhEFYQKFrh-96" value="Acesso RH" style="edgeStyle=orthogonalEdgeStyle;rounded=0;orthogonalLoop=1;jettySize=auto;html=1;entryX=0.5;entryY=0;entryDx=0;entryDy=0;exitX=0.5;exitY=0;exitDx=0;exitDy=0;" edge="1" parent="1" source="x7kGRpnDKAyhEFYQKFrh-93" target="x7kGRpnDKAyhEFYQKFrh-67">
          <mxGeometry x="0.6696" y="-5" relative="1" as="geometry">
            <mxPoint x="900" y="335" as="sourcePoint" />
            <mxPoint x="970" y="440" as="targetPoint" />
            <mxPoint as="offset" />
          </mxGeometry>
        </mxCell>
      </root>
    </mxGraphModel>
  </diagram>
</mxfile>
